<svg width="507.99999" height="285.75001" xmlns="http://www.w3.org/2000/svg">
 <metadata id="metadata5">image/svg+xml</metadata>

 <g>
  <title>background</title>
  <rect x="-1" y="-1" width="509.99999" height="287.75001" id="canvas_background" fill="none"/>
 </g>
 <g>
  <title>Layer 1</title>
  <g fill-opacity="0.27" stroke="null" id="layer1">
   <path stroke="null" id="path830" d="m189.8899,276.75989c-0.21183,-0.21912 -0.77787,-0.90359 -1.25789,-1.52102c-1.21378,-1.56127 -1.77795,-1.98867 -3.72548,-2.82244c-2.40751,-1.03064 -3.1887,-1.78551 -3.34646,-3.23375c-0.17759,-1.63021 0.65424,-3.04469 2.29555,-3.90354c0.74881,-0.39183 1.37092,-0.55239 2.92242,-0.75417c0.66247,-0.08612 1.88112,-0.37247 2.75483,-0.64721c0.86175,-0.27097 1.83559,-0.53295 2.16407,-0.58216c1.34089,-0.20086 2.29804,0.1063 3.13443,1.00591c0.95966,1.03218 1.14805,1.90732 0.96832,4.49828c-0.07891,1.1391 -0.05535,1.99279 0.08593,3.09922c0.28495,2.23164 0.07344,3.47177 -0.78683,4.6133c-1.32035,1.75235 -3.6475,1.86284 -5.2089,0.2476l0.00001,0zm-4.87179,-15.27684c-0.50422,-0.84172 -0.62236,-1.66541 -0.39235,-2.73534c0.48739,-2.26715 2.44066,-3.52792 3.93295,-2.5386c1.71167,1.13476 1.46108,4.38363 -0.44677,5.79231c-1.04401,0.77085 -2.46405,0.53292 -3.09381,-0.51837l-0.00001,0zm13.09411,10.02617c-0.37848,-0.79893 -0.21609,-1.73078 0.45726,-2.62381c1.99052,-2.63991 6.32496,-1.85029 5.75363,1.04818c-0.09679,0.49105 -0.19937,0.70311 -0.58913,1.21774c-0.66239,0.87475 -1.46609,1.37453 -2.56609,1.59589c-1.26073,0.25371 -2.60746,-0.29193 -3.05567,-1.238zm-1.10602,-6.79061c-0.56911,-1.16529 0.02335,-2.99023 1.34791,-4.15194c0.9747,-0.85487 2.52833,-1.34897 3.5673,-1.1345c0.62138,0.12822 1.31696,0.66069 1.57171,1.20306c0.91422,1.94624 -1.03222,4.78412 -3.62045,5.27855c-1.26155,0.24099 -2.39612,-0.23207 -2.86648,-1.19516l0.00001,-0.00001zm-5.29855,-4.14313c-0.72983,-1.19226 -0.49934,-3.09726 0.54461,-4.50115c1.67377,-2.2509 4.16582,-2.20357 4.84452,0.09195c0.46002,1.55595 -0.3985,3.79816 -1.84694,4.82362c-0.60385,0.42752 -1.50654,0.68269 -2.06156,0.58275c-0.54024,-0.09734 -1.20295,-0.54359 -1.48062,-0.99719l0,0.00001z" stroke-width="0.09294" fill-opacity="0.3" fill="#8c271e"/>
   <path stroke="null" id="path832" d="m236.90805,285.0128c-0.20994,-0.22098 -0.77009,-0.9104 -1.2448,-1.53201c-1.20035,-1.57187 -1.76083,-2.00423 -3.70115,-2.85505c-2.39859,-1.05177 -3.17327,-1.81347 -3.3186,-3.26305c-0.1636,-1.6317 0.68031,-3.03883 2.32894,-3.88324c0.75214,-0.38524 1.37559,-0.5403 2.92878,-0.72846c0.66317,-0.08029 1.88424,-0.35593 2.76026,-0.62296c0.86405,-0.26341 1.84009,-0.51682 2.16898,-0.56312c1.34257,-0.18907 2.29704,0.12646 3.12568,1.0334c0.95079,1.04058 1.13167,1.91735 0.92973,4.50661c-0.08877,1.13836 -0.07243,1.99225 0.05935,3.09987c0.2658,2.23406 0.04366,3.4723 -0.82634,4.60621c-1.33534,1.7407 -3.66335,1.83072 -5.21083,0.20182zm-4.74062,-15.31908c-0.49699,-0.84611 -0.60808,-1.6708 -0.3689,-2.73868c0.50681,-2.26277 2.47082,-3.50632 3.95457,-2.50394c1.70188,1.14975 1.42344,4.39631 -0.49642,5.78817c-1.05057,0.76163 -2.46853,0.51124 -3.08924,-0.54558l-0.00001,0.00002zm13.00765,10.14084c-0.37163,-0.80222 -0.20125,-1.7326 0.47973,-2.61968c2.01309,-2.62233 6.34059,-1.79465 5.74443,1.09865c-0.10097,0.4902 -0.2054,0.70133 -0.59954,1.21252c-0.66986,0.8689 -1.47782,1.36159 -2.57967,1.57328c-1.26286,0.24262 -2.60486,-0.31483 -3.04495,-1.2648l0,0.00003zm-1.04776,-6.80007c-0.5591,-1.17026 0.04898,-2.98991 1.38345,-4.13994c0.98199,-0.84626 2.5398,-1.3267 3.57689,-1.1031c0.62025,0.13376 1.31125,0.67223 1.56134,1.21683c0.89751,1.95418 -1.07321,4.77485 -3.66558,5.24651c-1.26356,0.22991 -2.39403,-0.25311 -2.85613,-1.2203l0.00002,-0.00001zm-5.26284,-4.18955c-0.71958,-1.19861 -0.47276,-3.10152 0.58319,-4.49618c1.693,-2.2361 4.18455,-2.16688 4.84355,0.13453c0.44665,1.55994 -0.43106,3.79451 -1.88823,4.80721c-0.60749,0.42221 -1.51234,0.66943 -2.06649,0.56463c-0.5394,-0.10198 -1.19825,-0.55416 -1.47202,-1.01019z" stroke-width="0.09294" fill-opacity="0.3" fill="#8c271e"/>
   <path stroke="null" id="path834" d="m223.6469,230.49109c-0.15757,-0.26182 -0.5566,-1.05787 -0.88675,-1.76897c-0.83482,-1.79812 -1.28927,-2.3433 -3.00097,-3.60012c-2.11599,-1.55364 -2.70895,-2.46739 -2.5401,-3.91435c0.19006,-1.62876 1.31548,-2.81696 3.10582,-3.27907c0.81679,-0.21083 1.45862,-0.22523 3.01513,-0.06767c0.66458,0.06734 1.91563,0.06648 2.82802,-0.00216c0.89992,-0.06734 1.90702,-0.10026 2.23802,-0.07328c1.35108,0.11039 2.21519,0.62807 2.82967,1.69548c0.70507,1.22466 0.69371,2.12027 -0.05842,4.60349c-0.33052,1.09177 -0.49775,1.92885 -0.60651,3.03903c-0.21939,2.23922 -0.70166,3.39915 -1.794,4.31491c-1.67663,1.40586 -3.96846,0.9823 -5.12991,-0.94775l0,0.00044zm-1.34402,-15.99549c-0.30379,-0.93513 -0.23545,-1.76457 0.22692,-2.75446c0.97976,-2.09751 3.16353,-2.87998 4.39706,-1.5755c1.41488,1.49625 0.44718,4.60426 -1.72523,5.5412c-1.18879,0.51269 -2.51929,-0.04328 -2.8987,-1.21122l-0.00004,-0.00001zm10.52401,12.75682c-0.19081,-0.86475 0.17492,-1.73553 1.02983,-2.45186c2.52721,-2.11761 6.57418,-0.35892 5.37203,2.33448c-0.20367,0.45634 -0.35082,0.63949 -0.84516,1.05192c-0.84016,0.70103 -1.73446,1.00448 -2.85542,0.96907c-1.28478,-0.04058 -2.4753,-0.87963 -2.70128,-1.90361zm0.4348,-6.86822c-0.29494,-1.26519 0.68869,-2.90789 2.23788,-3.73736c1.13998,-0.61037 2.76365,-0.73711 3.7281,-0.291c0.5768,0.26683 1.13592,0.94426 1.26332,1.53083c0.45724,2.1048 -2.07112,4.42532 -4.70282,4.31623c-1.28274,-0.0532 -2.28275,-0.77298 -2.5265,-1.81867l0.00002,-0.00002zm-4.2394,-5.24589c-0.44551,-1.32813 0.20331,-3.13148 1.53304,-4.26092c2.13197,-1.8109 4.54931,-1.19596 4.6993,1.19538c0.10164,1.6209 -1.23413,3.6094 -2.87365,4.27785c-0.68352,0.27868 -1.6198,0.32123 -2.13828,0.09713c-0.50467,-0.21807 -1.05091,-0.80418 -1.2204,-1.30949l0,0.00005z" stroke-width="0.09294" fill-opacity="0.3" fill="#8c271e"/>
   <path stroke="null" id="path836" d="m282.93574,249.81419c-0.19172,-0.23734 -0.69535,-0.97009 -1.11918,-1.62832c-1.07169,-1.66444 -1.59606,-2.14098 -3.46257,-3.1469c-2.30735,-1.24348 -3.01908,-2.06575 -3.04888,-3.52246c-0.03356,-1.63974 0.91931,-2.97367 2.62961,-3.68122c0.78028,-0.32282 1.41403,-0.42666 2.97714,-0.48786c0.66739,-0.02612 1.9064,-0.2015 2.80078,-0.39642c0.88215,-0.19227 1.87516,-0.36545 2.20667,-0.38487c1.35323,-0.07921 2.27958,0.31292 3.03355,1.28434c0.86511,1.11456 0.97582,2.00321 0.56903,4.56767c-0.17915,1.12741 -0.23034,1.97991 -0.18688,3.09468c0.08763,2.24846 -0.23207,3.46461 -1.18927,4.52409c-1.46917,1.62643 -3.7968,1.5268 -5.21,-0.22272zm-3.50941,-15.65517c-0.42822,-0.88382 -0.4735,-1.71487 -0.15033,-2.75985c0.68477,-2.21422 2.74114,-3.29399 4.14053,-2.17414c1.60512,1.28448 1.06989,4.49789 -0.95426,5.72906c-1.10763,0.67372 -2.50113,0.30878 -3.03597,-0.79509l0.00003,0.00001zm12.16072,11.16619c-0.30676,-0.82986 -0.06311,-1.74337 0.68611,-2.57218c2.21471,-2.45009 6.46252,-1.27305 5.63864,1.56244c-0.13953,0.4804 -0.26039,0.68234 -0.69385,1.15982c-0.73666,0.81161 -1.5811,1.23697 -2.6962,1.35834c-1.27803,0.13911 -2.57145,-0.52571 -2.9347,-1.50841zm-0.50465,-6.86331c-0.46441,-1.21197 0.28614,-2.97626 1.70758,-4.01402c1.04597,-0.76365 2.63688,-1.11579 3.65287,-0.80856c0.60764,0.18373 1.25365,0.77673 1.45971,1.33991c0.7395,2.02089 -1.44872,4.67212 -4.07013,4.93139c-1.27772,0.12636 -2.3662,-0.44705 -2.75004,-1.4487l0.00002,-0.00001zm-4.9133,-4.60412c-0.62212,-1.25327 -0.22506,-3.12994 0.93818,-4.4342c1.86501,-2.09115 4.343,-1.81948 4.8172,0.5281c0.3214,1.59123 -0.73083,3.74718 -2.26368,4.63806c-0.63904,0.37142 -1.56057,0.54424 -2.10462,0.39469c-0.52955,-0.14557 -1.15038,-0.64983 -1.38708,-1.12666z" stroke-width="0.09294" fill-opacity="0.3" fill="#8c271e"/>
   <path stroke="null" id="path838" d="m272.43093,203.38818c-0.18343,-0.24396 -0.66154,-0.99402 -1.06245,-1.66682c-1.01378,-1.70122 -1.52141,-2.19598 -3.35217,-3.26711c-2.26315,-1.32412 -2.94614,-2.17099 -2.9258,-3.62786c0.0229,-1.63992 1.02109,-2.93943 2.75472,-3.58624c0.79092,-0.29509 1.42786,-0.37652 2.99211,-0.38255c0.66789,-0.00216 1.91217,-0.13413 2.81273,-0.29738c0.88824,-0.16103 1.8866,-0.29908 2.21857,-0.30679c1.35511,-0.0314 2.26741,0.39314 2.9875,1.39055c0.82624,1.1444 0.90628,2.03642 0.41149,4.58498c-0.21784,1.1204 -0.29833,1.97057 -0.29327,3.08619c0.01023,2.2502 -0.35117,3.45433 -1.34426,4.47939c-1.52424,1.57363 -3.84704,1.39194 -5.19917,-0.40636zm-2.96847,-15.76946c-0.39755,-0.89838 -0.4142,-1.73052 -0.05526,-2.76345c0.76055,-2.18874 2.85283,-3.19532 4.21283,-2.02679c1.55994,1.34033 0.91445,4.5329 -1.15084,5.69193c-1.13014,0.63423 -2.51023,0.22036 -3.00675,-0.90169l0.00003,0zm11.76902,11.58837c-0.278,-0.84019 -0.0032,-1.74454 0.77424,-2.54643c2.29768,-2.37048 6.5024,-1.04431 5.58143,1.76038c-0.15599,0.47518 -0.28372,0.67274 -0.73333,1.13465c-0.76415,0.78511 -1.62273,1.18044 -2.74131,1.26241c-1.28205,0.094 -2.5518,-0.61609 -2.88102,-1.61101zm-0.26813,-6.87695c-0.42242,-1.22761 0.3884,-2.96435 1.84468,-3.95135c1.07162,-0.72629 2.67369,-1.0221 3.67847,-0.67923c0.60095,0.20506 1.22617,0.82049 1.41272,1.39058c0.66949,2.04574 -1.60864,4.6182 -4.23739,4.78482c-1.28129,0.08126 -2.34937,-0.53023 -2.6985,-1.54482l0.00001,0zm-4.75186,-4.77463c-0.5786,-1.27446 -0.1172,-3.136 1.09021,-4.39843c1.93585,-2.02409 4.40299,-1.66518 4.79611,0.69771c0.26645,1.60159 -0.85936,3.71912 -2.42192,4.5554c-0.65144,0.34864 -1.57837,0.48886 -2.11693,0.32022c-0.52423,-0.16417 -1.12732,-0.69003 -1.34747,-1.1749z" stroke-width="0.09294" fill-opacity="0.3" fill="#8c271e"/>
   <path stroke="null" id="path840" d="m337.86765,214.67056c-0.24833,-0.17549 -0.93009,-0.74163 -1.51501,-1.25808c-1.47906,-1.30591 -2.11181,-1.61982 -4.17841,-2.07292c-2.55469,-0.5601 -3.46076,-1.15499 -3.88143,-2.54837c-0.47354,-1.56847 0.08432,-3.11474 1.53957,-4.26722c0.6639,-0.52581 1.24574,-0.8005 2.73325,-1.29049c0.63511,-0.20923 1.78007,-0.71964 2.58818,-1.15385c0.79706,-0.42829 1.7059,-0.86878 2.01965,-0.97889c1.28072,-0.44943 2.27756,-0.32759 3.26442,0.39912c1.13231,0.83382 1.47796,1.65833 1.77662,4.23801c0.131,1.13416 0.31116,1.96853 0.65295,3.02915c0.68934,2.13927 0.709,3.39758 0.07313,4.68096c-0.97595,1.97011 -3.24235,2.5162 -5.07288,1.22259l-0.00003,0zm-7.58933,-14.09519c-0.64986,-0.73228 -0.91705,-1.51942 -0.8873,-2.61399c0.063,-2.31934 1.75107,-3.9254 3.39887,-3.23385c1.89006,0.79323 2.23977,4.0327 0.62344,5.77556c-0.88444,0.95372 -2.32343,0.98689 -3.13507,0.07231l0.00005,-0.00002zm14.70547,7.39003c-0.51847,-0.71388 -0.52981,-1.66004 -0.03198,-2.66414c1.47164,-2.96822 5.87554,-3.0072 5.84581,-0.05169c-0.00533,0.5007 -0.06694,0.72835 -0.3555,1.30731c-0.49041,0.98407 -1.18845,1.62624 -2.2287,2.05056c-1.19227,0.48632 -2.61566,0.20335 -3.22962,-0.64199l0,-0.00004zm-2.33242,-6.46456c-0.77295,-1.03803 -0.52557,-2.94261 0.56287,-4.33313c0.80091,-1.02324 2.23689,-1.80083 3.29713,-1.78543c0.63411,0.00971 1.41525,0.4016 1.76506,0.88666c1.25532,1.7405 -0.1367,4.89497 -2.58922,5.86738c-1.19539,0.47398 -2.397,0.22244 -3.03585,-0.63547l0,-0.00001zm-5.96638,-3.07493c-0.93583,-1.0343 -1.0588,-2.9495 -0.29053,-4.52523c1.23178,-2.52643 3.68914,-2.94845 4.77713,-0.82043c0.73744,1.4424 0.30513,3.80702 -0.92999,5.08694c-0.51493,0.53362 -1.35511,0.95405 -1.91882,0.96023c-0.54869,0.00648 -1.28174,-0.30801 -1.63778,-0.70152z" stroke-width="0.09294" fill-opacity="0.3" fill="#8c271e"/>
   <path stroke="null" id="path842" d="m326.75817,165.99467c-0.27289,-0.13298 -1.03538,-0.58133 -1.69443,-0.99631c-1.66648,-1.04935 -2.34073,-1.25666 -4.45232,-1.36898c-2.61032,-0.13882 -3.59877,-0.57918 -4.23435,-1.88641c-0.71546,-1.47149 -0.40928,-3.08824 0.84492,-4.46171c0.57219,-0.62662 1.10308,-0.99208 2.49392,-1.71683c0.59385,-0.30944 1.64331,-0.99887 2.37233,-1.55845c0.71904,-0.55194 1.5465,-1.13405 1.8388,-1.29359c1.19311,-0.65123 2.19637,-0.69251 3.28542,-0.1351c1.24956,0.63953 1.72113,1.39739 2.42389,3.89537c0.30867,1.09831 0.61844,1.89272 1.12354,2.88427c1.01875,1.99994 1.23714,3.23886 0.81239,4.60874c-0.65182,2.10287 -2.80265,3.00924 -4.81412,2.029zm-9.72041,-12.68337c-0.75727,-0.61751 -1.14548,-1.35118 -1.2892,-2.43646c-0.30456,-2.29964 1.10774,-4.15858 2.84365,-3.74301c1.99112,0.47667 2.8486,3.61769 1.52872,5.60003c-0.72222,1.08476 -2.13741,1.35073 -3.08322,0.57947l0.00005,-0.00002zm15.68445,4.91135c-0.62467,-0.62064 -0.78549,-1.55276 -0.45287,-2.62459c0.98328,-3.16846 5.3242,-3.92069 5.76223,-0.99854c0.0743,0.49506 0.04914,0.72979 -0.1442,1.34808c-0.32846,1.05085 -0.91594,1.79788 -1.87568,2.38531c-1.09998,0.6733 -2.54977,0.62467 -3.28948,-0.11026zm-3.32461,-6.00316c-0.92714,-0.89937 -0.98412,-2.81946 -0.12963,-4.36846c0.62878,-1.13986 1.92328,-2.14015 2.97227,-2.29678c0.62738,-0.09367 1.4605,0.16705 1.88251,0.58915c1.51437,1.5146 0.63914,4.85399 -1.62797,6.21135c-1.10502,0.6616 -2.33091,0.60807 -3.09718,-0.13524l0,-0.00001zm-6.37568,-2.06826c-1.08732,-0.86929 -1.51156,-2.73986 -1.00237,-4.41979c0.81637,-2.69347 3.1753,-3.50831 4.58576,-1.58408c0.95601,1.30428 0.90323,3.70845 -0.11357,5.17206c-0.4239,0.61019 -1.18676,1.16137 -1.74222,1.25883c-0.54067,0.09486 -1.31391,-0.09626 -1.72759,-0.42702z" stroke-width="0.09294" fill-opacity="0.3" fill="#8c271e"/>
   <path stroke="null" id="path844" d="m382.01059,170.09697c-0.24464,-0.18075 -0.91444,-0.76134 -1.48848,-1.29016c-1.45151,-1.33721 -2.07758,-1.66456 -4.13428,-2.1617c-2.54246,-0.61455 -3.43593,-1.22863 -3.82747,-2.6307c-0.44075,-1.57822 0.14924,-3.11225 1.62816,-4.2334c0.6747,-0.51151 1.26214,-0.77371 2.75954,-1.2318c0.63935,-0.19559 1.79467,-0.68148 2.61164,-1.09834c0.8058,-0.41117 1.72363,-0.83216 2.03959,-0.93553c1.2898,-0.42201 2.28388,-0.27889 3.25537,0.46876c1.11469,0.85781 1.44309,1.68951 1.68793,4.27498c0.10734,1.13672 0.27006,1.97475 0.58967,3.04243c0.64462,2.1535 0.63804,3.41196 -0.02441,4.68149c-1.01678,1.94883 -3.29406,2.44637 -5.09722,1.11397l-0.00004,0zm-7.29394,-14.25416c-0.63445,-0.74598 -0.88519,-1.53866 -0.83263,-2.63235c0.11137,-2.31747 1.83249,-3.88713 3.46551,-3.16054c1.8731,0.83341 2.15524,4.07965 0.50295,5.78759c-0.90412,0.9346 -2.34348,0.93705 -3.1359,0.0054l0.00007,-0.0001zm14.54821,7.70247c-0.50346,-0.72479 -0.49509,-1.67099 0.02356,-2.66423c1.53318,-2.93613 5.93689,-2.88106 5.84559,0.07306c-0.01546,0.50051 -0.08208,0.72676 -0.38266,1.29944c-0.51081,0.97339 -1.22208,1.60051 -2.27094,2.00251c-1.20213,0.46074 -2.61932,0.14745 -3.21553,-0.71082l-0.00002,0.00004zm-2.19719,-6.51293c-0.75116,-1.05432 -0.46413,-2.95317 0.65303,-4.32015c0.82207,-1.0059 2.27392,-1.75265 3.3336,-1.7146c0.63378,0.02277 1.40657,0.43173 1.7462,0.92415c1.21878,1.76693 -0.23867,4.89095 -2.7109,5.81078c-1.20501,0.44834 -2.40112,0.1712 -3.02194,-0.70016l0.00001,-0.00001zm-5.90098,-3.20168c-0.91408,-1.05405 -0.99708,-2.97145 -0.19616,-4.53044c1.28414,-2.49954 3.74977,-2.86898 4.79316,-0.7182c0.70721,1.45783 0.22573,3.81269 -1.0358,5.06595c-0.52593,0.52249 -1.37467,0.92489 -1.93839,0.91901c-0.5487,-0.0054 -1.27504,-0.33529 -1.62282,-0.73632z" stroke-width="0.09294" fill-opacity="0.3" fill="#8c271e"/>
   <path stroke="null" id="path846" d="m365.34515,118.66968c-0.25984,-0.15751 -0.97897,-0.67411 -1.59809,-1.14794c-1.56549,-1.19821 -2.21835,-1.46664 -4.31114,-1.7726c-2.58709,-0.37819 -3.53197,-0.90758 -4.04768,-2.26783c-0.58057,-1.53117 -0.13062,-3.11312 1.24157,-4.36563c0.62603,-0.57143 1.18752,-0.88657 2.6376,-1.48048c0.61917,-0.25358 1.72612,-0.84369 2.50231,-1.33396c0.7657,-0.48339 1.64186,-0.98719 1.9472,-1.11928c1.2466,-0.53886 2.24941,-0.48774 3.28396,0.16747c1.18706,0.75176 1.58871,1.54981 2.06453,4.10207c0.20889,1.12216 0.44612,1.94176 0.86022,2.97564c0.83517,2.08532 0.94156,3.33919 0.39568,4.66439c-0.83772,2.03427 -3.06094,2.73919 -4.97632,1.57767l0.00016,0.00047zm-8.54274,-13.52449c-0.69875,-0.68455 -1.01957,-1.4509 -1.06537,-2.5449c-0.09701,-2.31812 1.47614,-4.03958 3.16759,-3.46615c1.94016,0.65771 2.51239,3.86457 1.02017,5.71741c-0.81651,1.01388 -2.24972,1.14868 -3.12247,0.29366l0.00007,-0.00002zm15.17917,6.33279c-0.56641,-0.67549 -0.643,-1.61855 -0.21561,-2.65537c1.26339,-3.06499 5.65385,-3.41511 5.82799,-0.46477c0.02953,0.49986 -0.01652,0.73132 -0.26451,1.32927c-0.42135,1.01633 -1.07342,1.70626 -2.08187,2.20305c-1.15582,0.56939 -2.59525,0.38772 -3.26601,-0.41218zm-2.77248,-6.28395c-0.84265,-0.98088 -0.72717,-2.89828 0.26271,-4.36234c0.72843,-1.07734 2.10727,-1.95453 3.16597,-2.01409c0.63319,-0.03561 1.4395,0.30061 1.82189,0.75975c1.37229,1.64754 0.20115,4.89268 -2.17833,6.03603c-1.1598,0.55733 -2.37581,0.39131 -3.07225,-0.41935l0.00001,0zm-6.16386,-2.64578c-1.00486,-0.96564 -1.25958,-2.86748 -0.60185,-4.49368c1.05459,-2.60729 3.47687,-3.20195 4.70891,-1.156c0.83539,1.38658 0.5669,3.77617 -0.57697,5.14026c-0.47687,0.56869 -1.28601,1.04749 -1.84788,1.09352c-0.54695,0.04468 -1.29986,-0.21666 -1.68217,-0.58405l-0.00003,-0.00004z" stroke-width="0.09294" fill-opacity="0.3" fill="#8c271e"/>
   <path stroke="null" id="path848" d="m418.26739,123.60099c-0.22128,-0.20934 -0.81689,-0.86761 -1.3236,-1.46277c-1.28129,-1.50496 -1.86371,-1.90649 -3.846,-2.65157c-2.45049,-0.92102 -3.26413,-1.6399 -3.48546,-3.07959c-0.24917,-1.62058 0.51958,-3.07118 2.12146,-4.00324c0.73082,-0.42521 1.34523,-0.61365 2.88632,-0.88524c0.65803,-0.11592 1.86292,-0.45669 2.72361,-0.77083c0.84897,-0.30957 1.81032,-0.61523 2.1363,-0.67921c1.33072,-0.2611 2.30043,0.00216 3.17559,0.86352c1.00414,0.98788 1.23086,1.85366 1.16534,4.45013c-0.0291,1.14152 0.03241,1.99331 0.22225,3.09228c0.3829,2.21657 0.22617,3.46501 -0.583,4.64419c-1.24191,1.81018 -3.5619,2.02554 -5.19282,0.48232zm-5.53933,-15.04192c-0.54076,-0.81813 -0.69505,-1.63566 -0.51236,-2.71491c0.38714,-2.28688 2.28298,-3.63451 3.81732,-2.71349c1.75992,1.05642 1.65256,4.31338 -0.19146,5.80671c-1.00905,0.81717 -2.43815,0.64357 -3.11356,-0.37831l0.00006,0zm13.52238,9.42555c-0.41329,-0.78106 -0.29206,-1.71931 0.34132,-2.64182c1.87236,-2.72709 6.23724,-2.13376 5.79403,0.78759c-0.07505,0.49496 -0.16822,0.7114 -0.53493,1.24312c-0.62324,0.90376 -1.40414,1.43929 -2.49329,1.71005c-1.24837,0.31008 -2.61773,-0.17402 -3.10713,-1.09893zm-1.40381,-6.73398c-0.61983,-1.13846 -0.10828,-2.9883 1.16383,-4.20862c0.93611,-0.89798 2.46645,-1.46167 3.51383,-1.29428c0.6264,0.10015 1.34474,0.60063 1.62311,1.13097c0.99897,1.90306 -0.82064,4.82592 -3.38455,5.4366c-1.24958,0.29817 -2.40394,-0.12374 -2.91623,-1.06467l0.00001,-0.00001zm-5.47565,-3.90001c-0.78157,-1.15813 -0.6351,-3.07165 0.34596,-4.52124c1.57306,-2.32416 4.06472,-2.3893 4.84376,-0.12664c0.52805,1.53365 -0.23095,3.81235 -1.63281,4.90213c-0.58444,0.45434 -1.47499,0.74998 -2.03387,0.67519c-0.54399,-0.07285 -1.22568,-0.4888 -1.52305,-0.92943z" stroke-width="0.09294" fill-opacity="0.3" fill="#8c271e"/>
   <path stroke="null" d="m401.05149,73.38282c-0.22402,-0.20634 -0.82825,-0.85648 -1.34279,-1.44473c-1.30103,-1.4875 -1.88871,-1.88111 -3.88066,-2.59929c-2.46242,-0.88779 -3.28548,-1.59559 -3.52581,-3.03215c-0.27054,-1.61706 0.47899,-3.07795 2.06842,-4.03159c0.72515,-0.43506 1.33699,-0.63184 2.87438,-0.92421c0.65643,-0.12485 1.85666,-0.48214 2.71319,-0.80763c0.84481,-0.32105 1.80203,-0.63967 2.12714,-0.70805c1.32715,-0.27913 2.30026,-0.02862 3.1867,0.82046c1.01709,0.9742 1.25523,1.83683 1.224,4.43397c-0.01407,1.14181 0.05874,1.9927 0.26305,3.08898c0.41214,2.2112 0.27191,3.46166 -0.52162,4.65168c-1.21791,1.82682 -3.53483,2.07355 -5.18599,0.55256zm-5.73742,-14.96563c-0.55153,-0.81073 -0.7166,-1.62611 -0.54817,-2.70774c0.35691,-2.29191 2.23479,-3.66506 3.78115,-2.7649c1.77371,1.03251 1.70937,4.29064 -0.11477,5.80878c-0.99817,0.83075 -2.42944,0.67647 -3.11829,-0.33614l0.00007,-0.00001zm13.64561,9.24172c-0.42355,-0.77538 -0.31474,-1.7152 0.30642,-2.6462c1.83618,-2.75218 6.20851,-2.21798 5.80392,0.70912c-0.06854,0.49592 -0.15882,0.71361 -0.51849,1.25025c-0.61123,0.91211 -1.385,1.45816 -2.47049,1.74363c-1.2441,0.32719 -2.61978,-0.13859 -3.12136,-1.05679l0,-0.00001zm-1.49258,-6.71437c-0.63481,-1.12997 -0.14773,-2.98657 1.10817,-4.22399c0.92416,-0.91057 2.44691,-1.49492 3.4964,-1.34172c0.62768,0.09162 1.35255,0.58238 1.6379,1.1089c1.02399,1.8894 -0.75685,4.8366 -3.31246,5.48193c-1.24563,0.31455 -2.40536,-0.0912 -2.93002,-1.02511l0.00001,-0.00002zm-5.52665,-3.82557c-0.79679,-1.14745 -0.67564,-3.06279 0.28623,-4.52551c1.54224,-2.34525 4.03281,-2.44411 4.84166,-0.19218c0.54826,1.52637 -0.18058,3.81515 -1.56793,4.9238c-0.57839,0.46221 -1.46499,0.76982 -2.02477,0.70264c-0.54492,-0.06546 -1.23203,-0.47217 -1.53519,-0.90875z" id="path866" stroke-width="0.09294" fill-opacity="0.3" fill="#8c271e"/>
   <path stroke="null" id="path872" d="m451.19561,80.88215c-0.22402,-0.20634 -0.82825,-0.85648 -1.34279,-1.44474c-1.30103,-1.48749 -1.88871,-1.88111 -3.88066,-2.59928c-2.46242,-0.8878 -3.28548,-1.5956 -3.52581,-3.03215c-0.27054,-1.61708 0.47899,-3.07795 2.06842,-4.03159c0.72515,-0.43506 1.33699,-0.63185 2.87438,-0.92422c0.65643,-0.12484 1.85666,-0.48213 2.71319,-0.80762c0.84481,-0.32106 1.80203,-0.63967 2.12714,-0.70806c1.32715,-0.27912 2.30026,-0.02862 3.1867,0.82047c1.01709,0.9742 1.25523,1.83683 1.224,4.43396c-0.01407,1.14182 0.05874,1.99271 0.26305,3.08899c0.41214,2.21119 0.27191,3.46166 -0.52162,4.65168c-1.21791,1.82682 -3.53483,2.07354 -5.18599,0.55256zm-5.73742,-14.96563c-0.55153,-0.81073 -0.7166,-1.62611 -0.54817,-2.70774c0.35691,-2.29191 2.23479,-3.66507 3.78115,-2.76491c1.77371,1.03252 1.70937,4.29065 -0.11477,5.8088c-0.99817,0.83075 -2.42944,0.67647 -3.11829,-0.33614l0.00007,-0.00001zm13.64561,9.24172c-0.42355,-0.77538 -0.31474,-1.7152 0.30642,-2.6462c1.83618,-2.75218 6.20851,-2.21798 5.80392,0.70911c-0.06854,0.49593 -0.15882,0.71362 -0.51849,1.25025c-0.61123,0.91212 -1.385,1.45817 -2.47049,1.74364c-1.2441,0.32719 -2.61978,-0.13859 -3.12136,-1.0568zm-1.49258,-6.71437c-0.63481,-1.12998 -0.14773,-2.98657 1.10817,-4.224c0.92416,-0.91056 2.44691,-1.49491 3.4964,-1.34172c0.62768,0.09162 1.35255,0.58238 1.6379,1.10892c1.02399,1.8894 -0.75685,4.8366 -3.31246,5.48193c-1.24563,0.31455 -2.40536,-0.0912 -2.93002,-1.02511l0.00001,-0.00002zm-5.52665,-3.82557c-0.79679,-1.14745 -0.67564,-3.06279 0.28623,-4.52553c1.54224,-2.34524 4.03281,-2.44409 4.84166,-0.19218c0.54826,1.52638 -0.18058,3.81515 -1.56793,4.92381c-0.57839,0.4622 -1.46499,0.76982 -2.02477,0.70264c-0.54492,-0.06546 -1.23203,-0.47218 -1.53519,-0.90875z" stroke-width="0.09294" fill-opacity="0.3" fill="#8c271e"/>
   <path stroke="null" d="m490.51316,22.61813c-0.22402,-0.20634 -0.82825,-0.85648 -1.34279,-1.44473c-1.30103,-1.4875 -1.88871,-1.88111 -3.88066,-2.59929c-2.46242,-0.88779 -3.28548,-1.59559 -3.52581,-3.03215c-0.27054,-1.61706 0.47899,-3.07795 2.06842,-4.03159c0.72515,-0.43506 1.33699,-0.63184 2.87438,-0.92421c0.65643,-0.12485 1.85666,-0.48214 2.71319,-0.80763c0.84481,-0.32105 1.80203,-0.63967 2.12714,-0.70805c1.32715,-0.27913 2.30026,-0.02862 3.1867,0.82046c1.01709,0.9742 1.25523,1.83683 1.224,4.43397c-0.01407,1.14181 0.05874,1.9927 0.26305,3.08899c0.41214,2.21119 0.27191,3.46165 -0.52162,4.65167c-1.21791,1.82682 -3.53483,2.07355 -5.18599,0.55256zm-5.73742,-14.96562c-0.55153,-0.81074 -0.7166,-1.62612 -0.54817,-2.70774c0.35691,-2.29191 2.23479,-3.66507 3.78115,-2.76491c1.77371,1.03251 1.70937,4.29064 -0.11477,5.80878c-0.99817,0.83075 -2.42944,0.67647 -3.11829,-0.33614l0.00007,0zm13.64561,9.24172c-0.42355,-0.77539 -0.31474,-1.71521 0.30642,-2.64621c1.83618,-2.75218 6.20851,-2.21798 5.80392,0.70912c-0.06854,0.49592 -0.15882,0.71361 -0.51849,1.25025c-0.61123,0.91211 -1.385,1.45816 -2.47049,1.74363c-1.2441,0.3272 -2.61978,-0.13859 -3.12136,-1.05679zm-1.49258,-6.71437c-0.63481,-1.12998 -0.14773,-2.98658 1.10817,-4.224c0.92416,-0.91057 2.44691,-1.49492 3.4964,-1.34172c0.62768,0.09162 1.35255,0.58238 1.6379,1.10892c1.02399,1.88939 -0.75685,4.8366 -3.31246,5.48192c-1.24563,0.31455 -2.40536,-0.0912 -2.93002,-1.02511l0.00001,-0.00001zm-5.52665,-3.82558c-0.79679,-1.14745 -0.67564,-3.06279 0.28623,-4.52551c1.54224,-2.34524 4.03281,-2.44409 4.84166,-0.19218c0.54826,1.52637 -0.18058,3.81515 -1.56793,4.9238c-0.57839,0.46221 -1.46499,0.76983 -2.02477,0.70264c-0.54492,-0.06546 -1.23203,-0.47217 -1.53519,-0.90875z" id="path868" stroke-width="0.09294" fill-opacity="0.3" fill="#8c271e"/>
   <path stroke="null" d="m435.81048,31.27121c-0.22402,-0.20634 -0.82825,-0.85648 -1.34279,-1.44474c-1.30103,-1.48749 -1.88871,-1.88111 -3.88066,-2.59928c-2.46242,-0.8878 -3.28548,-1.5956 -3.52581,-3.03215c-0.27054,-1.61708 0.47899,-3.07795 2.06842,-4.03159c0.72515,-0.43506 1.33699,-0.63185 2.87438,-0.92422c0.65643,-0.12484 1.85666,-0.48213 2.71319,-0.80762c0.84481,-0.32106 1.80203,-0.63967 2.12714,-0.70806c1.32715,-0.27912 2.30026,-0.02862 3.1867,0.82047c1.01709,0.9742 1.25523,1.83683 1.224,4.43396c-0.01407,1.14182 0.05874,1.99271 0.26305,3.08899c0.41214,2.21119 0.27191,3.46166 -0.52162,4.65168c-1.21791,1.82682 -3.53483,2.07354 -5.18599,0.55256zm-5.73742,-14.96563c-0.55153,-0.81073 -0.7166,-1.62611 -0.54817,-2.70774c0.35691,-2.29191 2.23479,-3.66507 3.78115,-2.76491c1.77371,1.03252 1.70937,4.29065 -0.11477,5.8088c-0.99817,0.83075 -2.42944,0.67647 -3.11829,-0.33614l0.00007,-0.00001zm13.64561,9.24172c-0.42355,-0.77538 -0.31474,-1.7152 0.30642,-2.6462c1.83618,-2.75218 6.20851,-2.21798 5.80392,0.70911c-0.06854,0.49593 -0.15882,0.71362 -0.51849,1.25025c-0.61123,0.91212 -1.385,1.45817 -2.47049,1.74364c-1.2441,0.32719 -2.61978,-0.13859 -3.12136,-1.0568zm-1.49258,-6.71437c-0.63481,-1.12998 -0.14773,-2.98657 1.10817,-4.224c0.92416,-0.91056 2.44691,-1.49491 3.4964,-1.34172c0.62768,0.09162 1.35255,0.58238 1.6379,1.10892c1.02399,1.8894 -0.75685,4.8366 -3.31246,5.48193c-1.24563,0.31455 -2.40536,-0.0912 -2.93002,-1.02511l0.00001,-0.00002zm-5.52665,-3.82557c-0.79679,-1.14745 -0.67564,-3.06279 0.28623,-4.52553c1.54224,-2.34524 4.03281,-2.44409 4.84166,-0.19218c0.54826,1.52638 -0.18058,3.81515 -1.56793,4.92381c-0.57839,0.4622 -1.46499,0.76982 -2.02477,0.70264c-0.54492,-0.06546 -1.23203,-0.47218 -1.53519,-0.90875z" id="path870" stroke-width="0.09294" fill-opacity="0.3" fill="#8c271e"/>
  </g>
 </g>
</svg>